<svg xmlns="http://www.w3.org/2000/svg" viewBox="0 0 630.4 405.34"><defs><style>.cls-1{fill:none;stroke:#fff;stroke-miterlimit:10;stroke-width:4px;}.cls-2{fill:#00e1fb;}.cls-3{fill:#f500ae;}.cls-4{fill:#fff;}</style></defs><title>Asset 3</title><g id="Layer_2" data-name="Layer 2"><g id="Layer_1-2" data-name="Layer 1"><path class="cls-1" d="M171.2,77.67,171,87.87l-.2,16.26.05,11.87.2,25.15,3.51,0,20.86-.34,3.8,0q2.88,0,2.88,1.74a1.52,1.52,0,0,1-1.56,1.68c-.23,0-1,.07-2.25.1H141.17l.15-18.56.1-11.37.09-12.89-.19-19.63.05-4.2Z"/><path class="cls-1" d="M238,77.67v3.42l-.29,26.75.29,36.48H208.07l.29-39.89L208,80.06l0-2.39Z"/><path class="cls-1" d="M283.92,73.66l39,70.66H289.1l-4.72-8.94H268l-14.4,0-2.43,0-3.22,6a22.2,22.2,0,0,1-2,3.35,1.78,1.78,0,0,1-1.4.65c-1.11,0-1.67-.49-1.67-1.47a6.58,6.58,0,0,1,.95-2.37q1-1.72,6.67-11.4l29.56-49.75Zm-15.19,32.08L260.2,120.1l-6.82,11.82,14.56.19,14.61-.19Z"/><path class="cls-1" d="M395.05,75.37l10.64,36.38,4.82,16.11,4.34,14.6.59,1.86H385.76l-9.35-34.52-20.17,30.32L335.55,111.3q-3,10.55-6.53,25.88a46,46,0,0,1-1.84,7,2.31,2.31,0,0,1-2.27,1.1c-1.43,0-2.15-.49-2.15-1.47a47.66,47.66,0,0,1,1.37-4.93l3-10.4,5.28-18,10.32-35.11,26.73,38.75Z"/><path class="cls-1" d="M170.55,242v1.37l0,9.37V254H140.81l.05-3,.24-34.33-.2-16.31-.05-11.08,0-2h22.31q13.68,0,20.73,1.17a31.57,31.57,0,0,1,11.84,4.2,26.9,26.9,0,0,1,10,11.28,26.07,26.07,0,0,1,2.68,11.57,27.08,27.08,0,0,1-3,12.5,25.84,25.84,0,0,1-10.23,11,29.93,29.93,0,0,1-15.31,3.84A73.27,73.27,0,0,1,170.55,242Zm0-51.37v3.27l-.19,32.62.1,12.16a40.26,40.26,0,0,0,10,1A25.31,25.31,0,0,0,191,237.5a23.17,23.17,0,0,0,8.34-6.2,24,24,0,0,0-10.55-38.42q-6.5-2.25-16.7-2.25Z"/><path class="cls-1" d="M249.39,185.3a35.57,35.57,0,0,1,14.9,3.27,34.24,34.24,0,0,1,16.11,14.88A35.67,35.67,0,0,1,284.85,221a35,35,0,0,1-19,30.91,35,35,0,0,1-16.4,4.06,36,36,0,0,1-32.58-21.58,35,35,0,0,1,1.61-30.86,34.43,34.43,0,0,1,16-14.89A35.4,35.4,0,0,1,249.39,185.3Zm-3.85,3.27-.29,31.79.25,26.41.05,6a18.68,18.68,0,0,0,3.17.29,32.8,32.8,0,0,0,19.29-6A31.21,31.21,0,0,0,279.24,233a33,33,0,0,0,2.44-12.46,31.93,31.93,0,0,0-4.11-15.82,30.84,30.84,0,0,0-14.16-13.23A33.51,33.51,0,0,0,249,188.27,21,21,0,0,0,245.54,188.57Z"/><path class="cls-1" d="M292.18,242.61a3.14,3.14,0,0,1,2.05,1.32,27.33,27.33,0,0,0,9,6.42,25.09,25.09,0,0,0,10.47,2.42c3.81,0,5.72-1.16,5.72-3.47a8.75,8.75,0,0,0-2-5q-2-2.76-9.57-10.91-9.53-10.31-12.7-15.28-4.2-6.59-4.2-12.55,0-9,8-14.7,7.86-5.61,19.38-5.62a33.48,33.48,0,0,1,14.8,3.27,19.72,19.72,0,0,1,4.37,2.93c1.22,1.11,1.83,2,1.83,2.78a1.36,1.36,0,0,1-.51,1,1.59,1.59,0,0,1-1,.46c-.56,0-1.37-.5-2.45-1.51a20.63,20.63,0,0,0-6.93-4.13,23.2,23.2,0,0,0-8.25-1.63,6.9,6.9,0,0,0-4,1,3.15,3.15,0,0,0-1.54,2.71,9.39,9.39,0,0,0,1.9,4.88,61,61,0,0,0,6.45,7.67q14.35,15.27,17.58,20.6a21.14,21.14,0,0,1,3.38,10.84,16,16,0,0,1-2.4,8.4,18.87,18.87,0,0,1-6.64,6.49q-8.1,4.83-19.77,4.84a32.73,32.73,0,0,1-18.9-5.56c-3.81-2.61-5.71-4.64-5.71-6.11a1.58,1.58,0,0,1,.51-1.14A1.61,1.61,0,0,1,292.18,242.61Z"/><path class="cls-1" d="M393.83,190.54l-.24,15.29-.15,14.5.16,33.59H363.81L364.1,215,364,201.78l-.15-11.23-6.45.15-9.22.19-1.37.05c-1.56,0-2.35-.58-2.35-1.75a1.53,1.53,0,0,1,1.37-1.76,15.91,15.91,0,0,1,2.39-.15h59.92a15.71,15.71,0,0,1,3.71.29,1.6,1.6,0,0,1,1,1.66c0,1.11-.83,1.66-2.49,1.66l-4.24-.14-11.24-.2Z"/><rect class="cls-2" y="127.73" width="630.4" height="95"/><path class="cls-3" d="M152.56,5.46l-.27,13.93L152,41.57l.07,16.19.27,34.32,4.79.06,28.47-.46,5.19-.07q3.91,0,3.92,2.36a2.08,2.08,0,0,1-2.13,2.3c-.31,0-1.33.09-3.06.14h-78l.2-25.32.14-15.52L112.05,38l-.27-26.79.07-5.73Z"/><path class="cls-3" d="M254.63,5.46v4.67l-.4,36.51.4,49.77H213.86l.4-54.44-.47-33.24.07-3.27Z"/><path class="cls-3" d="M328.36,0l53.27,96.41h-46.2L329,84.21H306.68L287,84.15l-3.32-.07-4.39,8.14a29.42,29.42,0,0,1-2.7,4.56,2.4,2.4,0,0,1-1.91.89c-1.52,0-2.28-.66-2.28-2a8.8,8.8,0,0,1,1.3-3.23q1.29-2.35,9.1-15.55L323.16,9ZM307.63,43.77,296,63.35l-9.31,16.13,19.87.27,19.94-.27Z"/><path class="cls-3" d="M491,2.33,505.51,52l6.58,22L518,93.87l.8,2.54H478.31l-12.75-47.1L438,90.68,409.8,51.35q-4.08,14.4-8.91,35.32-1.74,8-2.51,9.5t-3.09,1.5c-2,0-2.93-.66-2.93-2a62.07,62.07,0,0,1,1.87-6.73l4.13-14.19,7.21-24.51L419.64,2.33,456.12,55.2Z"/><path class="cls-3" d="M164.74,233.69v1.87l.07,12.79V250H124.16l.07-4.06.32-46.84-.27-22.25-.06-15.13-.07-2.66H154.6q18.65,0,28.28,1.6A43.23,43.23,0,0,1,199,166.39a36.75,36.75,0,0,1,13.59,15.39,35.68,35.68,0,0,1,3.67,15.79,37.23,37.23,0,0,1-4.13,17.06,35.33,35.33,0,0,1-14,15,41,41,0,0,1-20.88,5.23A100,100,0,0,1,164.74,233.69Zm0-70.09v4.46l-.26,44.51.14,16.59a54.79,54.79,0,0,0,13.66,1.4,34.72,34.72,0,0,0,14.25-3,32.59,32.59,0,0,0,19.32-30,32.87,32.87,0,0,0-22.32-30.91q-8.87-3.06-22.79-3.06Z"/><path class="cls-3" d="M283.32,156.32a48.4,48.4,0,0,1,20.32,4.46,46.67,46.67,0,0,1,22,20.32A48.6,48.6,0,0,1,331.7,205a47.72,47.72,0,0,1-26,42.18,48,48,0,0,1-22.38,5.54,49.11,49.11,0,0,1-44.45-29.44,47.8,47.8,0,0,1,2.2-42.11,47,47,0,0,1,21.78-20.33A48.33,48.33,0,0,1,283.32,156.32Zm-5.26,4.46-.39,43.38.34,36,.06,8.13a24.68,24.68,0,0,0,4.34.4,44.72,44.72,0,0,0,26.31-8.13A42.56,42.56,0,0,0,324,221.4a44.68,44.68,0,0,0,3.33-17,43.47,43.47,0,0,0-5.6-21.58,42,42,0,0,0-19.33-18.05,45.53,45.53,0,0,0-19.65-4.4A28.58,28.58,0,0,0,278.06,160.78Z"/><path class="cls-3" d="M352.7,234.53c.8,0,1.73.6,2.8,1.79a37,37,0,0,0,12.23,8.76,34.17,34.17,0,0,0,14.29,3.3q7.78,0,7.79-4.73,0-3-2.73-6.77T374,222q-13-14-17.33-20.84Q351,192.15,351,184q0-12.26,10.92-20.05,10.72-7.66,26.45-7.67a45.69,45.69,0,0,1,20.19,4.46,26.39,26.39,0,0,1,6,4c1.67,1.51,2.5,2.77,2.5,3.8a1.81,1.81,0,0,1-.7,1.36,2.13,2.13,0,0,1-1.43.64q-1.14,0-3.33-2.07a28.44,28.44,0,0,0-9.46-5.63,31.82,31.82,0,0,0-11.26-2.23,9.37,9.37,0,0,0-5.43,1.44,4.31,4.31,0,0,0-2.1,3.7q0,2.73,2.59,6.66a83.29,83.29,0,0,0,8.8,10.46q19.59,20.85,24,28.11,4.61,7.65,4.6,14.79A21.76,21.76,0,0,1,420,237.25a25.83,25.83,0,0,1-9.06,8.86q-11.06,6.6-27,6.6a44.67,44.67,0,0,1-25.79-7.59q-7.79-5.33-7.79-8.33a2.14,2.14,0,0,1,.7-1.56A2.21,2.21,0,0,1,352.7,234.53Z"/><path class="cls-3" d="M502.4,163.48l-.33,20.85-.2,19.79.21,45.84H461.44l.39-53.1-.2-18.06-.2-15.32-8.8.2L440,164l-1.87.06c-2.13,0-3.19-.8-3.19-2.39a2.08,2.08,0,0,1,1.86-2.4,22.71,22.71,0,0,1,3.26-.2l81.75,0a21.84,21.84,0,0,1,5.07.4,2.18,2.18,0,0,1,1.33,2.27c0,1.51-1.13,2.26-3.4,2.26l-5.79-.2-15.33-.26Z"/><path class="cls-4" d="M153.74,222.69v1.87l.07,12.79V239H113.16l.07-4.06.32-46.84-.27-22.25-.06-15.13-.07-2.66H143.6q18.65,0,28.28,1.6A43.23,43.23,0,0,1,188,155.39a36.75,36.75,0,0,1,13.59,15.39,35.68,35.68,0,0,1,3.67,15.79,37.23,37.23,0,0,1-4.13,17.06,35.33,35.33,0,0,1-14,15,41,41,0,0,1-20.88,5.23A100,100,0,0,1,153.74,222.69Zm0-70.09v4.46l-.26,44.51.14,16.59a54.79,54.79,0,0,0,13.66,1.4,34.72,34.72,0,0,0,14.25-3,32.59,32.59,0,0,0,19.32-30,32.87,32.87,0,0,0-22.32-30.91q-8.87-3.06-22.79-3.06Z"/><path class="cls-4" d="M272.32,145.32a48.4,48.4,0,0,1,20.32,4.46,46.67,46.67,0,0,1,22,20.32A48.6,48.6,0,0,1,320.7,194a47.72,47.72,0,0,1-26,42.18,48,48,0,0,1-22.38,5.54,49.11,49.11,0,0,1-44.45-29.44,47.8,47.8,0,0,1,2.2-42.11,47,47,0,0,1,21.78-20.33A48.33,48.33,0,0,1,272.32,145.32Zm-5.26,4.46-.39,43.38.34,36,.06,8.13a24.68,24.68,0,0,0,4.34.4,44.72,44.72,0,0,0,26.31-8.13A42.56,42.56,0,0,0,313,210.4a44.68,44.68,0,0,0,3.33-17,43.47,43.47,0,0,0-5.6-21.58,42,42,0,0,0-19.33-18.05,45.53,45.53,0,0,0-19.65-4.4A28.58,28.58,0,0,0,267.06,149.78Z"/><path class="cls-4" d="M341.7,223.53c.8,0,1.73.6,2.8,1.79a37,37,0,0,0,12.23,8.76,34.17,34.17,0,0,0,14.29,3.3q7.78,0,7.79-4.73,0-3-2.73-6.77T363,211q-13-14-17.33-20.84Q340,181.15,340,173q0-12.26,10.92-20.05,10.72-7.66,26.45-7.67a45.69,45.69,0,0,1,20.19,4.46,26.39,26.39,0,0,1,6,4c1.67,1.51,2.5,2.77,2.5,3.8a1.81,1.81,0,0,1-.7,1.36,2.13,2.13,0,0,1-1.43.64q-1.14,0-3.33-2.07a28.44,28.44,0,0,0-9.46-5.63,31.82,31.82,0,0,0-11.26-2.23,9.37,9.37,0,0,0-5.43,1.44,4.31,4.31,0,0,0-2.1,3.7q0,2.73,2.59,6.66a83.29,83.29,0,0,0,8.8,10.46q19.59,20.85,24,28.11,4.61,7.65,4.6,14.79A21.76,21.76,0,0,1,409,226.25a25.83,25.83,0,0,1-9.06,8.86q-11.06,6.6-27,6.6a44.67,44.67,0,0,1-25.79-7.59q-7.79-5.33-7.79-8.33a2.14,2.14,0,0,1,.7-1.56A2.21,2.21,0,0,1,341.7,223.53Z"/><path class="cls-4" d="M491.4,152.48l-.33,20.85-.2,19.79.21,45.84H450.44l.39-53.1-.2-18.06-.2-15.32-8.8.2L429,153l-1.87.06c-2.13,0-3.19-.8-3.19-2.39a2.08,2.08,0,0,1,1.86-2.4,22.71,22.71,0,0,1,3.26-.2l81.75,0a21.84,21.84,0,0,1,5.07.4,2.18,2.18,0,0,1,1.33,2.27c0,1.51-1.13,2.26-3.4,2.26l-5.79-.2-15.33-.26Z"/><path class="cls-2" d="M165.15,380.64a7.42,7.42,0,0,1-.57-2c-.93-5,2.68-9.14,3.49-13.57,2.58-6.37,7.71-16.58,11-22.79.16-.23.94-.37.89-.67s-.19-.47-.23-.67c-.11-.59,1.52-2.21,2-3a47.3,47.3,0,0,1,3.08-7c.72-1.05,1.3-.65,1.07-1.92a.22.22,0,0,1,.16-.24c1.37-.25,2.75-4.37,4.14-5.65.14-1.45,1.93-1.67,1.83-3.28,0-.2-.23-.16-.43-.13s-.94.38-1.44.47-1-.11-1.43,0c-.19,0-.39.07-.44.39-3.44,1.14-14.16,2.62-13.74,4.88.22,1.18,2.76,1.73,3.44,5.36-3.79-.11-4.61-4.53-9.43-3.64-1.37.25-1.42-1.67-2.4-2-.15-6.89,15-5.73,23.53-10.25,1.49-.18,3-.35,4.56-.64,3.64-.67,7.42-1.68,11.16-2.37,10.52-1.95,21.85-1.71,29.29,1.09,2.66,1.74,4.84,5.31,6.06,9.15-.46,1.91-.12,5.92-.54,7.52s-2.76,3.77-2.74,3.87c-.68,1.85.44,3.47-4.56,7.25-.69,2.87-4.55,5.62-5.62,6.43-.54.4-.95.38-1.29.74-.62.53-2.72,4-4.11,4.73-1.11.61-6.28,4.52-9.87,7.12-2.34,1.65-4.61,3.09-7.44,4.83-.74.44-2.61,2.42-4.58,2.78l-.58.11c-.5.09-.71,1.15-1.1,1.22l-.59.11c-.89.16-3.2,2.52-5.46,2.94l-.49.09c-2.11,2.32-5.65,3-8.42,4.51-.3,0-.62,1-.82,1.06-1.21.64-3.17,1-4.54,1.86-.55.31-1.94,1.07-3.06,1.59-.09-.5-.41-.54-.8-.47s-1,.28-1.36.36c-1.87.34-.68-1.5-2.85-1.1-1.27.23-2.25,1-3.33,1.22A1.88,1.88,0,0,1,165.15,380.64Zm25.67-49.3c-1.51,2.31-2.94,6.14-4.89,8.23-.67,3-4.16,8.29-4.83,11.27-2.19,1.93-3.07,6.46-5.28,8.29.33,1.77-1.74,2.16-1.57,3,.05.3.19.48.22.67s-1.61,2.84-1.35,4.22a.49.49,0,0,0,.27.36c.12-1.55,2.19-3.56,3.76-3.85.49-.09.64.69.69,1,.17.88-.43,2.62-1.12,2.75.1,0-2.61,5.67-2.68,6.39-.36.27-1.45,1.49-1.38,1.89,0,.19.25.25.84.14,8-4.21,16.28-7.68,24.07-12.28,1-.59,1.57-1.41,2.75-1.63a2.54,2.54,0,0,1,.81,0c3.76-2.74,6.67-5.71,11.34-7.39,1.85-2.68,6-5.29,8.49-7.47,2.77-2,4-5.12,7.49-6.78,0-.1-.16-.27-.17-.37-.08-.4,5.74-8,7.77-11.31-.29-1.57.23-4.82-.05-6.29-.41-2.26-2-2.48-2.22-3.76l-.07-.4c-1.29-.37-3.78-1.74-4.86-1.54-2.17.4-3-1-4.87-1a106.31,106.31,0,0,0-23,2.22l-3.35.62.1.49c.67,3.64-2.87,4.29-3,7.37-.73,1.05.07,3.14-.77,4.11-.29.05-.61,0-.8.05C192.18,330.48,191.68,331.08,190.82,331.34Z"/><path class="cls-2" d="M285.47,346.58c-1,2.63-12.68,12.82-20,14.68-6.12,1.53-12.1,1.11-16.31-.75-2.31.12-3.59-2.39-3.72-4.19-.76-1.9-1.8-4.25-1.63-6.62,0,0,.35-.27.3-.56.11-1,.81-6.05,1.9-6.76.24-1.47.46-3,1.74-3.78.59-2.86,3-4.53,4-7,2.44-1.68,4.77-3.33,6.28-5.64,3.5-.34,4.55-2.37,7.81-2.87,1.58.83,1.91,2.09,2.16,4,.14.79-.09.63-.21,1.06-.27.76.24,2.4-.39,3.43.71,3.83-2.14,8.73-1.8,12.23-1.25.94-1.85,3.19-2.54,4.44s-2,1.89-2.34,3.28c-2.12,1.2-3,3.19-5.08,4.4,1.71,1,4.18,1.16,5.63,1.29l1-.18c5.16-1.26,12.32-5.94,15.89-9.75a24.07,24.07,0,0,1,3.36-2.76c.83-.46,2.51-1.79,3.5-2A21.12,21.12,0,0,1,285.47,346.58Zm-26-15.54c-2.57,2.1-3.59,5.34-6,7-1.17,3.58-4.56,10-3.73,15a8.68,8.68,0,0,0,3.65-1.69,20.6,20.6,0,0,0,2.51-2.4c2.51-2.9,5.09-10.4,6.34-13.58.63-1.54,1.44-3.21,1.09-5.08-.15-.28-.26-.87-.65-.79C261.57,330.66,260.22,330.5,259.51,331Z"/><path class="cls-2" d="M277.17,352.89c-.34-1.87-.85-4.62-1.05-4.58,3.74-1.81,7.47-7.49,10.48-9.88,3.64-3.41,8.32-9.47,12.32-12.55,2.11-1.81,3.86-3.87,5.87-5.66,1.75-1.54,3.39-3.68,6-4.46a20.31,20.31,0,0,0,2.31,2c.8,1.58-.23,3.19-.6,4.48a62.53,62.53,0,0,1-2.36,5.93c-.06.22.34.75.16.89-.74.95-3.65,9.93-3.8,11.89-1.06,1.41-2.45,2.69-2.46,4.83,1.34,1.17,2.63-1.2,4.72-.88,3.95-1.74,8.16-3.74,12.09-5.59,4.32-3,8.93-6.13,12.78-9.48.39,2.06,1.25,4.54.46,4.08-1,.6-2.18,2.54-3.09,3.12-.28.15-1,1.1-1.31,1.15a6,6,0,0,0-1.29.75c-1.44,1-1.93,2.19-3.08,3.11a4.36,4.36,0,0,1-1.39.77c-.91.57-2,1.38-3,1.88s-1.27.84-2.67,1.51c-1.23.53-4.52,2-6.17,3.48-5.21,1.57-10.5,5.4-16.51,5.9-1.88.25-3.87-.61-6-.32a12.18,12.18,0,0,0-5.33-2.47,5.76,5.76,0,0,1-.75-4c-1.55-.12-1.35,1-2.2,1.32-.16.74-1.75.42-1.68,1.33C278.59,352.32,277.25,353.29,277.17,352.89Zm21.21-8.5c1.24-1.55,4.63-8,4.49-10.39,1.18-.73,1-4.14,2.05-4.85-.3-1.07-.23-1.79.64-2-.21-.58-.42-1.15-1.17-.81,0,.71-.64.94-.63,1.54-3.28,1.53-3.1,5.26-6.49,6.7a137.29,137.29,0,0,1-10.74,11.75c2.72,1.53,4.67,3.81,8.71,2.56A6.66,6.66,0,0,0,298.38,344.39Z"/><path class="cls-2" d="M348.86,339.63c-.33-.65-3.1,1.39-3.09,2-2.12,1.72-5.18,2.79-7.54,4.35-.29,1.17-1.34.45-2.27.93-.17.13-1,1.1-1.19,1.23-2.39.85-5,.83-7,1.71-.53-1.23-2.18-.82-2.38-2.41a7.55,7.55,0,0,1-.5-4.38c.54-2,2.25-6.52,3.61-8,2.57-3.12,4.9-9.76,7.71-12.72.1-1.13,1.1-1.73,2-2.3-.16-1.4,1.22-1.65,1.43-2.71a23.89,23.89,0,0,0,2-2.4c.82-.56.25-2,2.11-1.82,1.93-.56,1.68,1.93,2.89,2.42.05,3-2.81,4.08-3.1,6.88-2.3,1.34-2.24,4.38-3.86,6.1-2.27,1.44-3.64,6.68-5.55,8.45-.8,2.29-3.33,3.47-3.18,6.49,2.21.91,4.85-1.3,5.93-2.62,3.48-.95,5.94-3,8.34-4.9s4.47-3.37,6.75-5.32c1.82-1.15,1.57-2.53,3.06-3.82,2-1,3.59-3.11,6-3.76,1.65,2.85.42,6.13-3.58,9.21-.51,1.11-2,1.89-2.61,2.92C353.84,336.88,349.56,337.36,348.86,339.63Zm9.54-58.92c1.33,1.68,2.1,4.18,2.78,6.8-1,1.91-4.47,1.65-6.19,1.15C354.14,284.65,353.42,280.71,358.4,280.71Z"/><path class="cls-2" d="M417.86,310.79c-2.86,1.55-4.73,3.52-7.47,5.25l-.39.07c-1,.18-1.23,1-2.37.95,0,.92-.76.85-1.24,1.55-1.48.78-2.81.72-3.44,2.26-1.85,1.57-8.52,6.16-10.08,7.66-2.53,1.69-4.22,1.91-6.49,4a6.78,6.78,0,0,1-1.76,3.68,1.42,1.42,0,0,1,.68.9c.18,1-.38,1.79,0,2.94-1,.18-1.93,4.93-2.7,6.3.26,1.37-.55,4.17-.9,5.55a1.43,1.43,0,0,0-.71,1.66c-.25,3.61-1.87,7-2.41,10.62l.07.39c.22,1.18-1.49,1.29-.92,2.71-.8,2.29-.95,4.76-2.2,6.82.27.86-4.47,11-4.89,13.11a21.14,21.14,0,0,0-2.79,5.8c-1.84,2.17-4,6.34-6.43,7.6-.26,1.88-6.93,4.33-8.6,4.64l-1.3.14a1.39,1.39,0,0,0-1.55-.73c-2.08-1.85-2.72-4.79-4.26-7l-.07-.4c-.31-1.67.12-3.17-.4-4.91a16.56,16.56,0,0,0,.83-5.95c2.36-5.93,3.5-12.44,7.53-17.56-.17-1.5,1-2.22,1.85-3.19.87-3,3.1-5.25,4.86-7.82-.12-.69,2.28-4.18,3.05-4.43,1.68-4.07,5.8-8.19,8.64-11.56l1.3-.65A46,46,0,0,0,377,337l.61-1.13.77-1.87a10.84,10.84,0,0,0-5.36,2.92c-2.66.49-5.13,2-7.78,2.46-1.18.21-1.92-.46-3.44.12-1.56-.73-2.81-2-4.35-2.65l-.08-.39c-.21-1.18-1-2.15-1.22-3.33-.6-3.25.77-6.25,1.31-9.4a37.77,37.77,0,0,0,4.37-7.72l10.91-9.75,1.37-.26c4-2.76,4.79-3.83,9.9-4.78a17.12,17.12,0,0,1,7.83,0c1.09,1.52,3,2.08,4,3.63l.53,2.85c.42,2.26-2.34,4.4-3.84,5.59-.4,1.19-.47,2.43-.76,3.6-.91.57-.94,2.61-.74,3.7l.07.39,1.29.37c.69-.13,1.4.45,1.47-.27,2.91-1.86,5.39-3.85,8.57-5.35.5-.6.8-.66,1.18-1.34a15.85,15.85,0,0,0,3.6-2c.47-1.3,8.63-5.56,10.4-5.89.1,0,.22.07.25.26C418.38,308.05,417,309.43,417.86,310.79Zm-55.52,50a36.55,36.55,0,0,1-5,7.23c-1.08,4.06-4.95,11.18-6.73,16.39-.74,2.07.09,4.87-1.21,6.64a3.31,3.31,0,0,1,.63,1.2l1.12,6.1c.19,1,1.61-.09,1.28,1.39a1.65,1.65,0,0,0,1,.11,11.18,11.18,0,0,0,4-2.06l.33-1c2.68-2.53,4.39-5.39,6.82-8.18.14-1.45,4.8-12,5.47-12.2.72-.54-.53-2.34,1.13-2.14.12-2.67,4.88-18.19,5.95-20.63a26.8,26.8,0,0,0,1.36-5.85c-.37-2.57,1.54-4.86,1.05-7.51,0-.2,0-.41-.27-.36C377.66,340.3,362.58,358.85,362.34,360.83Zm21.6-54.75c-1.08.2-6.69,2.87-7,3.75-2.9.23-7.72,6.1-10.37,7.71A9.61,9.61,0,0,1,364,322a13.17,13.17,0,0,1-2.56,4.85c.13,1.8-.76,3.59-.43,5.36a6.44,6.44,0,0,0,.85,1.88,9.23,9.23,0,0,0,3.33.4c3.15-.58,5.68-3.39,8.68-3.64a5.15,5.15,0,0,1,3.58-2.09,18.86,18.86,0,0,1,5.72-5.94c1.26-4.7,2.14-9.85,5.3-13.69a4.84,4.84,0,0,1,2.85-.53l-.07-.39C390.81,305.83,385.71,305.76,383.94,306.08Z"/><path class="cls-2" d="M455.05,316.11c-1.56.9-1.81,1.76-4.25,3.44-1.39,1.78-2.35,1.55-3.87,3.25-3.16,3.23-7.63,4.37-11,7.44-2.74.6-6.16,2.46-8.74.6a10.48,10.48,0,0,1,.44-5.88c.06-.22-.36-.85-.18-1,.42-.48-.05-.8.24-1.46,0-.32.67-.23.79-.66a15.68,15.68,0,0,1,.64-2.05c.2-.55.82-1.07,1.1-1.73.08-.12-.24-.77-.16-.88a4.86,4.86,0,0,0,.8-1.17c.73-1.56,2.7-7.92,3.48-10.31-3.68,2.11-11.05,10.08-13.51,13.28-.72,1.05-2,2.31-2.4,3.5-1.91,1.78-2.13,4.46-3.92,6.32-1.55.39-1,2.32-2.41,2.89-.86.87-1.46,2-2.42,2.88-2.51.16-2.81,1.85-4.42.31-.63-2.32.48-3.44,1-5.06,1.11-1.12,1.51-2.83,2.16-4.27.95-3.12,4-9.37,4.52-12.94.08-1.74.33-10.33.6-11.6.38-1.8,1.5-1.8,3.93-1.85,2,1.27,1.89,10.23,1.08,12.42.74.16.09.49.18,1l-.49.09c.55,1.32.65-.83,1.38-.76.89-.17.06-1.34,1.41-1.18.25-1.37,1.56-2,1.83-3.29,1.14.1,1.39-.76,2.18-1.42a23.36,23.36,0,0,0,3.3-3.05c.44-.39.78-1.26,1.22-1.65,2-2,5.39-3.84,7.19-6.21,1.53-1.1,5.2-3.81,7.79-3a5.68,5.68,0,0,1-1.05,7.52c.54,1.83-1.69,1.84-1.25,3.69-1.34.45-.7,2.26-1.92,2.79-.2,2.79-2.73,8.34-4,10.3a16.57,16.57,0,0,1-1.35,3.71c-1.34.45-.47,2.43-1.34,3.2,1,1.13,1.57-1.41,2.67-1.51.91-.58,2.61-.18,3.27-1,1.26-.33,1.17-.82,2.19-1.32,4.72-3.11,6.36-3,10-6.84a10,10,0,0,0,3.21-2.42,14.6,14.6,0,0,0,2.06-2.62c.73-.44,1.89-1.87,2.52-2.3,1.69-1.33,2.87-3.17,5.71-3.8,1.34,4.53.61,6.6-.85,7-.89.17-2.35,1-2.38,1.46A41.18,41.18,0,0,1,455.05,316.11Z"/></g></g></svg>